<svg width="221" height="271" viewBox="0 0 221 271" fill="none" xmlns="http://www.w3.org/2000/svg">
<path d="M99.0975 132.446L64.6265 137.989C64.6265 137.989 61.1975 139.316 47.6105 138.565C34.0235 137.813 22.6905 145.684 18.6905 157.938C17.1975 162.511 14.2645 170.345 11.2085 178.547C14.9915 194.046 21.6655 208.316 30.5785 220.691C34.0685 221.077 37.7825 221.279 41.6905 221.22C41.6905 221.22 43.6545 229.096 45.9455 238.11C65.3835 256.155 90.7555 267.235 118.575 267.67C131.279 263.601 144.025 256.061 144.025 256.061L140.025 209.302C140.025 209.302 151.357 205.735 161.357 193.769C163.543 191.154 139.357 147.511 132.357 138.564C125.356 129.618 99.0975 132.446 99.0975 132.446Z" fill="#7E7B44"/>
<path d="M114.184 205.681C122.157 193.888 119.566 177.504 108.397 169.086C97.2274 160.668 81.7094 163.404 73.7362 175.196C65.7631 186.989 68.3541 203.373 79.5233 211.791C90.6926 220.209 106.211 217.473 114.184 205.681Z" fill="#EFD79A"/>
<path d="M86.3916 180.186L87.8676 189.519" stroke="#7E7B44" stroke-miterlimit="10" stroke-linecap="round" stroke-linejoin="round"/>
<path d="M97.9688 178.145L99.4447 187.477" stroke="#7E7B44" stroke-miterlimit="10" stroke-linecap="round" stroke-linejoin="round"/>
<path d="M109.257 185.747C110.696 194.845 104.877 203.451 96.2614 204.971C87.6444 206.49 79.4934 200.347 78.0544 191.25" stroke="#7E7B44" stroke-miterlimit="10" stroke-linecap="round" stroke-linejoin="round"/>
<path d="M60.6956 138.604C60.6956 138.604 76.6246 155.41 91.2566 151.325C103.87 147.804 101.358 132.259 101.358 132.259" stroke="#514D27" stroke-width="0.75" stroke-miterlimit="10" stroke-linecap="round" stroke-linejoin="round"/>
<path d="M57.1965 107.044C57.1965 107.044 63.6875 116.873 64.6255 137.989C64.6255 137.989 78.7185 149.603 88.6585 148.019C98.5985 146.436 99.0965 132.446 99.0965 132.446C99.0965 132.446 91.8625 122.582 90.4635 107.981L57.1965 107.044Z" fill="#FFB48C"/>
<path d="M82.0645 120.305C86.9065 119.502 89.9175 117.673 91.7945 115.712C91.2025 113.327 90.7285 110.74 90.4645 107.983L57.1975 107.044C57.1975 107.044 58.5525 109.103 60.1135 113.343C65.6375 117.06 74.2635 121.597 82.0645 120.305Z" fill="#EF8D6F"/>
<path d="M34.8746 91.6663C34.8746 91.6663 20.2556 57.9559 17.3156 50.7258C14.3746 43.4957 24.1246 39.0086 24.1246 39.0086C24.1246 39.0086 21.0206 29.5064 32.5696 17.6288C44.1186 5.75107 67.3746 11.294 76.6246 1C76.6246 1 75.8746 9.44635 72.3746 14.1974C72.3746 14.1974 90.8746 3.37554 109.375 17.8927C109.375 17.8927 109.375 30.5622 104.625 39.8004C104.625 39.8004 109.375 35.8412 111.875 25.0193C111.875 25.0193 118.875 51.8407 101.875 63.901L34.8746 91.6663Z" fill="#D86224"/>
<path d="M68.4275 14.1973C68.4275 14.1973 84.8745 -1.1117 109.624 14.1973" stroke="#D86224" stroke-width="0.5" stroke-miterlimit="10" stroke-linecap="round" stroke-linejoin="round"/>
<path d="M109.375 17.8926C109.375 17.8926 102.875 28.4505 84.3745 28.9784" stroke="#FF8326" stroke-width="0.5" stroke-miterlimit="10" stroke-linecap="round" stroke-linejoin="round"/>
<path d="M78.6416 23.4355C78.6416 23.4355 89.9466 27.3673 102.286 24.2137" stroke="#FF8326" stroke-width="0.5" stroke-miterlimit="10" stroke-linecap="round" stroke-linejoin="round"/>
<path d="M61.2426 22.893C85.0126 16.0578 97.0817 30.0123 103.234 52.8164C109.386 75.6205 109.293 101.665 92.0207 107.482C74.7487 113.3 50.2256 112.33 39.7226 89.0765C29.2196 65.8227 25.8666 33.0656 61.2426 22.893Z" fill="#FFB48C"/>
<path d="M91.4107 45.8966C87.7907 45.3212 84.0827 44.1049 80.8477 42.2689C83.7747 38.0711 91.4187 40.5965 91.4107 45.8966Z" fill="#D86224"/>
<path d="M68.4275 44.1493C66.7345 46.0053 64.9365 47.8044 63.3965 49.8062C61.6155 51.5768 60.5146 54.0442 58.8236 55.9045C57.6196 53.0855 58.3606 49.6785 60.1426 47.3251C61.9546 44.9327 65.5025 42.9478 68.4275 44.1493Z" fill="#D86224"/>
<path d="M89.6367 89.5589C89.6367 89.5589 77.9967 95.7205 68.8167 86.9722" stroke="#EF8D6F" stroke-width="0.75" stroke-miterlimit="10" stroke-linecap="round" stroke-linejoin="round"/>
<path d="M86.7346 61.9954C87.1456 63.7987 88.3396 65.0424 89.4036 64.7721C90.4666 64.5019 90.9956 62.8221 90.5846 61.0177C90.1736 59.2144 88.9796 57.9707 87.9156 58.241C86.8526 58.5113 86.3236 60.1921 86.7346 61.9954Z" fill="#3A130E"/>
<path d="M64.7656 67.6914C65.1766 69.4947 66.3706 70.7385 67.4336 70.4682C68.4966 70.1979 69.0256 68.5171 68.6156 66.7138C68.2046 64.9105 67.0106 63.6668 65.9466 63.937C64.8836 64.2073 64.3546 65.8882 64.7656 67.6914Z" fill="#3A130E"/>
<path d="M41.4976 83.6688C42.3626 89.823 48.8156 93.911 55.9116 92.7993C63.0076 91.6875 68.0596 85.7983 67.1946 79.6441C66.3296 73.4899 59.8766 69.4018 52.7806 70.5136C45.6856 71.6254 40.6336 77.5146 41.4976 83.6688Z" fill="#F27F52"/>
<path d="M102.635 58.1872C103.267 58.0879 103.891 58.0446 104.509 58.0256C106.18 65.545 107.106 73.2164 106.913 80.2427C106.537 80.3314 106.156 80.4127 105.767 80.4739C98.6713 81.5857 92.2173 77.4976 91.3523 71.3434C90.4873 65.1881 95.5393 59.2979 102.635 58.1872Z" fill="#F27F52"/>
<path d="M78.6416 50.7258C78.6416 50.7258 78.9216 61.6227 84.6666 70.7205C84.6666 70.7205 93.8276 68.5307 94.7866 70.2675C95.7456 72.0032 89.7856 82.9339 89.7856 82.9339" fill="#FFB48C"/>
<path d="M78.6416 50.7258C78.6416 50.7258 78.9216 61.6227 84.6666 70.7205C84.6666 70.7205 93.8276 68.5307 94.7866 70.2675C95.7456 72.0032 89.7856 82.9339 89.7856 82.9339" stroke="#EF8D6F" stroke-width="0.75" stroke-miterlimit="10" stroke-linecap="round" stroke-linejoin="round"/>
<path d="M43.3746 43.9075C56.8746 44.1492 72.8746 27.1309 72.3746 14.1974C75.8746 9.44635 76.6246 1 76.6246 1C67.3746 11.294 44.1186 5.75107 32.5696 17.6288C21.0206 29.5064 24.1246 39.0086 24.1246 39.0086C24.1246 39.0086 14.3746 43.4957 17.3156 50.7258C19.2146 55.3956 25.9826 71.1026 30.5396 81.6479C53.0256 72.7011 43.3746 43.9075 43.3746 43.9075Z" fill="#FF8326"/>
<path d="M23.8225 34.2301C23.8225 34.2301 28.2975 22.2965 44.8355 21.151C61.3745 20.0044 67.3745 18.4207 72.3745 14.1975" stroke="#D86224" stroke-width="0.5" stroke-miterlimit="10" stroke-linecap="round" stroke-linejoin="round"/>
<path d="M76.6245 1C76.6245 1 68.6255 17.1104 49.3745 20.8014" stroke="#D86224" stroke-width="0.5" stroke-miterlimit="10" stroke-linecap="round" stroke-linejoin="round"/>
<path d="M17.1226 45.8965C17.1226 45.8965 24.5696 61.3058 45.2216 61.5075" stroke="#D86224" stroke-width="0.5" stroke-miterlimit="10" stroke-linecap="round" stroke-linejoin="round"/>
<path d="M44.8356 97.4933L35.8666 78.9821C35.8666 78.9821 27.7856 67.3462 19.0836 74.4263C11.3876 80.6872 30.4416 108.211 44.8356 97.4933Z" fill="#FFB48C"/>
<path d="M35.4726 78.4595C35.7286 78.7847 35.8666 78.9832 35.8666 78.9832L44.8356 97.4944C35.8276 104.202 24.9956 95.9319 20.0356 87.2691C23.3326 79.641 30.2176 78.2536 35.4726 78.4595Z" fill="#EF8D6F"/>
<path d="M114.71 132.258C114.71 132.258 134.023 167.12 140.022 209.303C140.022 209.303 151.355 205.736 161.355 193.77C163.541 191.155 139.355 147.511 132.355 138.565C129.106 134.411 121.707 132.798 114.71 132.258Z" fill="#969269"/>
<path d="M139.234 204.268C139.234 204.268 149.641 200.401 160.498 189.519" stroke="#514D27" stroke-width="0.75" stroke-miterlimit="10" stroke-linecap="round" stroke-linejoin="round"/>
<path d="M131.23 44.0422L151.415 76.8795L114.087 94.4955L104.383 78.762L131.23 44.0422Z" fill="#371315"/>
<path d="M187.55 44.0422L167.366 76.8795L204.693 94.4955L214.398 78.762L187.55 44.0422Z" fill="#371315"/>
<path d="M220.961 202.108C213.507 165.381 201.876 141.205 201.876 141.205C201.876 141.205 210.602 134.956 212.612 129.897C214.622 124.837 209.225 95.9686 201.876 87.044C194.527 78.1193 174.134 76.5779 159.39 76.5779C144.647 76.5779 124.253 78.1193 116.904 87.044C109.555 95.9686 104.157 124.837 106.168 129.897C108.178 134.956 116.904 141.205 116.904 141.205C116.904 141.205 91.0674 194.906 91.7334 263.837C100.849 266.35 110.413 267.693 120.275 267.693C164.316 267.695 202.446 241.002 220.961 202.108Z" fill="#D0915E"/>
<path d="M181.777 121.156C195.257 128.582 206.096 126.075 212.843 122.645C211.89 112.017 207.445 93.8074 201.876 87.0451C195.546 79.3589 179.544 77.1502 165.806 76.6846C164.532 87.1306 163.775 111.239 181.777 121.156Z" fill="#AD7041"/>
<path d="M91.7324 263.225C91.7364 263.71 91.6064 263.803 92.0994 263.937C92.4554 264.034 92.8114 264.128 93.1674 264.222C93.8824 264.409 94.5984 264.587 95.3164 264.759C96.8794 265.133 98.4494 265.471 100.025 265.774C103.088 266.362 106.173 266.815 109.271 267.133C115.631 267.785 122.043 267.871 128.416 267.379C129.946 267.261 131.474 267.11 132.998 266.927C133.595 266.855 134.69 266.941 135.08 266.447C135.522 265.886 135.955 265.318 136.379 264.743C137.94 262.621 139.377 260.4 140.682 258.094C143.412 253.268 145.569 248.068 146.981 242.646C150.029 230.941 149.24 218.591 144.344 207.57C140.481 198.875 134.532 191.381 127.147 185.784C121.706 181.661 115.582 178.552 109.181 176.49C108.075 176.134 106.959 175.809 105.836 175.52C105.393 175.405 104.948 175.297 104.503 175.194C104.029 176.804 103.568 178.419 103.119 180.036C101.332 186.472 99.7444 192.971 98.3594 199.517C93.9384 220.403 91.5754 241.813 91.7324 263.225C91.7334 263.429 91.7284 262.776 91.7324 263.225Z" fill="#AD7041"/>
<path d="M220.864 201.64C217.598 185.676 213.163 169.947 207.471 154.757C202.513 159.194 199.872 165.788 199.114 172.499C197.914 183.129 200.3 195.097 206.24 203.867C208.234 206.81 210.678 209.424 213.51 211.471C213.832 211.704 214.159 211.93 214.491 212.147C214.921 212.429 215.177 212.83 215.491 212.309C216.172 211.173 216.835 210.025 217.48 208.865C218.126 207.703 218.753 206.53 219.36 205.346C219.859 204.373 221.087 202.733 220.864 201.64Z" fill="#AD7041"/>
<path d="M104.383 78.7623C103.046 75.2317 127.531 43.1493 131.231 44.0415C134.931 44.9347 141.167 86.0019 138.524 90.0192C135.881 94.0375 108.386 89.3361 104.383 78.7623Z" fill="#AD7041"/>
<path d="M214.398 78.7623C215.735 75.2317 191.25 43.1493 187.55 44.0415C183.851 44.9347 177.614 86.0019 180.257 90.0192C182.899 94.0375 210.395 89.3361 214.398 78.7623Z" fill="#D0915E"/>
<path d="M141.126 193.999C141.126 193.999 135.735 216.562 147.362 228.508C147.362 228.508 145.094 220.704 147.362 215.736C147.362 215.736 147.319 230.632 167.741 234.426C167.741 234.426 170.996 225.329 170.595 216.709C170.595 216.709 172.977 223.044 172.536 227.284C172.536 227.284 180.889 223.713 181.777 209.651" stroke="#EDC8B9" stroke-width="0.75" stroke-miterlimit="10" stroke-linejoin="round"/>
<path d="M134.625 115.687C136.814 115.687 138.589 113.413 138.589 110.609C138.589 107.805 136.814 105.532 134.625 105.532C132.436 105.532 130.661 107.805 130.661 110.609C130.661 113.413 132.436 115.687 134.625 115.687Z" fill="#3A130E"/>
<path d="M134.625 115.688C136.814 115.688 138.589 113.414 138.589 110.61C138.589 109.752 138.421 108.945 138.128 108.237L130.882 112.269C131.419 114.257 132.89 115.688 134.625 115.688Z" fill="#231012"/>
<path d="M133.938 110.098C133.938 111.128 133.559 111.961 133.092 111.961C132.625 111.961 132.246 111.127 132.246 110.098C132.246 109.07 132.625 108.236 133.092 108.236C133.56 108.236 133.938 109.07 133.938 110.098Z" fill="#EFF6FE"/>
<path d="M188.119 110.609C188.119 113.413 186.344 115.687 184.155 115.687C181.966 115.687 180.191 113.413 180.191 110.609C180.191 107.805 181.966 105.532 184.155 105.532C186.345 105.532 188.119 107.805 188.119 110.609Z" fill="#3A130E"/>
<path d="M184.156 115.688C186.345 115.688 188.12 113.414 188.12 110.61C188.12 109.752 187.952 108.945 187.659 108.237L180.413 112.269C180.949 114.257 182.42 115.688 184.156 115.688Z" fill="#231012"/>
<path d="M183.468 110.098C183.468 111.128 183.089 111.961 182.622 111.961C182.155 111.961 181.776 111.127 181.776 110.098C181.776 109.07 182.155 108.236 182.622 108.236C183.09 108.236 183.468 109.07 183.468 110.098Z" fill="#EFF6FE"/>
<path d="M159.39 121.156C159.39 121.156 159.237 127.434 153.139 128.888V139.103C153.139 142.748 155.938 145.703 159.39 145.703C162.842 145.703 165.641 142.748 165.641 139.103V128.888C159.544 127.434 159.39 121.156 159.39 121.156Z" fill="#F49A8E"/>
<path d="M159.39 121.156V136.891" stroke="#E27169" stroke-miterlimit="10" stroke-linecap="round" stroke-linejoin="round"/>
<path d="M159.39 106.803C152.86 106.803 142.786 108.34 143.029 112.186C143.272 116.03 152.083 120.387 159.39 121.156C166.697 120.387 175.509 116.03 175.751 112.186C175.995 108.34 165.92 106.803 159.39 106.803Z" fill="#231012"/>
<path d="M177.655 122.272C177.655 122.272 177.127 129.19 168.354 129.19C159.581 129.19 159.391 121.156 159.391 121.156C159.391 121.156 159.201 129.19 150.428 129.19C141.655 129.19 141.126 122.272 141.126 122.272" stroke="#231012" stroke-miterlimit="10" stroke-linecap="round" stroke-linejoin="round"/>
<path d="M202.165 141.823C197.346 144.176 178.894 152.515 159.391 152.515C139.888 152.515 121.436 144.176 116.616 141.823C116.253 142.61 115.56 144.149 114.631 146.364C118.027 150.935 131.606 166.464 159.391 166.464C187.176 166.464 200.755 150.934 204.151 146.364C203.221 144.149 202.528 142.61 202.165 141.823Z" fill="#EFD79A"/>
<path d="M170.293 183.934C171.715 177.576 167.986 171.205 161.964 169.704C155.942 168.203 149.908 172.14 148.486 178.498C147.064 184.856 150.793 191.227 156.815 192.728C162.837 194.229 168.871 190.292 170.293 183.934Z" fill="#F89D4A"/>
<mask id="mask0_50_316" style="mask-type:luminance" maskUnits="userSpaceOnUse" x="148" y="169" width="23" height="25">
<path d="M170.294 183.934C171.716 177.576 167.987 171.205 161.965 169.703C155.943 168.202 149.908 172.139 148.486 178.497C147.064 184.855 150.793 191.227 156.815 192.728C162.837 194.23 168.872 190.292 170.294 183.934Z" fill="white"/>
</mask>
<g mask="url(#mask0_50_316)">
<path d="M143.865 185.055L172.536 164.088" stroke="#EFD79A" stroke-width="3" stroke-miterlimit="10"/>
<path d="M145.116 190.954L173.787 169.988" stroke="#EFD79A" stroke-width="5" stroke-miterlimit="10"/>
</g>
<path d="M167.516 183.242C168.576 178.504 165.797 173.756 161.309 172.637C156.821 171.518 152.323 174.452 151.264 179.19C150.204 183.929 152.983 188.677 157.471 189.796C161.959 190.915 166.456 187.981 167.516 183.242Z" fill="#B2552D"/>
<path d="M167.741 181.194C167.741 179.425 167.242 177.78 166.392 176.399C164.87 174.702 162.722 173.638 160.333 173.638C155.721 173.638 151.983 177.586 151.983 182.454C151.983 184.224 152.482 185.868 153.332 187.249C154.854 188.946 157.002 190.01 159.391 190.01C164.002 190.011 167.741 186.064 167.741 181.194Z" fill="#D46327"/>
<path d="M159.391 159.209V170.816" stroke="white" stroke-width="2" stroke-miterlimit="10" stroke-linecap="round" stroke-linejoin="round"/>
<path d="M159.098 226.631C158.964 225.355 142.848 227.206 144.771 226.544C146.694 225.881 165.953 218.76 164.252 217.848C162.551 216.936 140.021 220.43 143.335 219.101C146.648 217.771 168.254 208.418 166.664 206.719C165.075 205.021 140.501 215.144 142.323 213.58C144.145 212.016 164.686 198.601 163.414 197.354C162.142 196.108 151.338 201.89 148.662 203.561C145.987 205.233 127.527 212.734 126.41 211.853C125.293 210.971 126.7 208.825 129.497 204.678C132.294 200.531 132.388 196.207 131.673 193.988C130.688 190.932 128.17 192.9 124.085 200.365C121.577 204.947 117.211 208.818 112.065 213.4C108.048 216.977 107.06 224.931 106.819 228.247C89.4595 230.571 57.3935 234.235 51.4815 232.972C48.6305 232.362 47.6995 202.113 48.3425 185.444C49.2805 161.102 46.7065 151.809 31.5795 155.987C20.1505 159.145 13.9255 171.678 17.6475 218.721C20.0455 249.042 30.5385 268.623 38.7685 270.809C45.3455 272.557 89.9175 255.569 113.549 245.536C117.623 244.489 127.677 239.862 136.262 236.456C144.848 233.047 159.3 228.557 159.098 226.631Z" fill="#FFB48C"/>
<path d="M51.6895 219.462C52.6155 217.833 55.8235 148.925 31.6825 142.081C25.6065 145.436 20.9615 150.977 18.6895 157.939C14.6895 170.192 0.356465 205.833 1.02246 209.304C1.68946 212.775 18.3555 221.574 41.6895 221.222C46.3565 221.221 50.6895 221.221 51.6895 219.462Z" fill="#969269"/>
<path d="M1.31958 207.042C1.31958 207.042 18.4386 218.186 52.0386 216.666" stroke="#514D27" stroke-width="0.75" stroke-miterlimit="10" stroke-linecap="round" stroke-linejoin="round"/>
</svg>
