<svg width="244" height="286" viewBox="0 0 244 286" fill="none" xmlns="http://www.w3.org/2000/svg">
<path d="M185.339 181.609C182.339 168.675 159.72 138.001 155.263 133.687C152.263 130.784 134.638 135.623 134.638 135.623L101.687 147.208C101.687 147.208 79.0894 158.645 78.0894 162.868C77.0894 167.091 90.5884 220.937 99.4644 237.566C108.339 254.194 108.367 260.529 107.728 265.28C107.576 266.413 106.983 268.797 106.172 271.761C115.2 274.223 124.666 275.534 134.422 275.534C154 275.534 172.409 270.256 188.449 260.98C186.979 253.917 185.676 248.037 185.589 246.012C185.339 240.205 188.339 194.542 185.339 181.609Z" fill="#969269"/>
<path d="M97.8245 128.662C97.8245 128.662 103.369 135.065 101.687 147.207C101.687 147.207 117.039 161.636 129.877 154.773C139.958 149.385 134.638 135.622 134.638 135.622C134.638 135.622 129.942 130.634 127.307 119.212L97.8245 128.662Z" fill="#BA6E4D"/>
<path d="M129.418 126.199C128.66 124.208 127.926 121.895 127.307 119.213L97.8245 128.662C97.8245 128.662 98.7455 129.743 99.7225 131.822C105.511 134.182 114.436 136.722 121.173 133.658C125.85 131.531 128.225 128.714 129.418 126.199Z" fill="#AA5044"/>
<path d="M60.8395 93.8721C63.8005 100.318 61.3394 108.671 54.8094 112.546C48.2794 116.421 44.3395 111.915 44.3395 111.915C41.3395 117.094 32.5065 122.748 23.5065 117.955C14.5065 113.162 15.8395 101.28 15.8395 101.28C10.0065 102.687 1.50644 97.408 0.172436 86.6748C-1.16056 75.9405 5.67244 73.4816 5.67244 73.4816C4.00544 61.8721 13.6724 63.6226 13.6724 63.6226C13.6724 63.6226 11.8445 52.2559 25.6715 47.7857C39.0055 43.4749 45.1724 55.5933 45.1724 55.5933C45.1724 55.5933 52.0695 50.5666 58.8395 56.8138C65.6095 63.0609 57.8395 75.9226 57.8395 75.9226L60.8395 93.8721Z" fill="#231012"/>
<path d="M13.4315 63.6944C14.3475 67.3844 20.2645 68.9196 19.3695 63.7314C19.1745 62.6017 17.8135 61.6958 17.1005 62.9807C16.0625 64.8526 19.0575 66.8038 20.3595 67.1205C21.8145 67.4752 23.7185 66.0795 23.3795 64.3659C23.2875 63.9024 22.1915 61.1912 21.4315 62.5616C19.5385 65.9739 26.5245 68.2164 28.3885 65.5167C28.5785 65.2412 28.1445 64.9783 27.9565 65.2507C26.8675 66.827 24.7055 66.3413 23.3065 65.6751C22.4845 65.2845 21.8015 64.5517 21.7045 63.535C22.0685 63.6923 22.4335 63.8496 22.7975 64.0059C22.3905 66.1977 21.4495 67.0234 19.9745 66.4849C18.9885 66.2442 18.2655 65.3763 17.7465 64.5317C18.1265 64.311 18.5065 64.0914 18.8875 63.8708C19.0095 64.4303 19.0175 64.991 18.9115 65.5526C18.4215 68.8974 14.2165 64.7713 13.9145 63.553C13.8325 63.2246 13.3505 63.364 13.4315 63.6944Z" fill="#3A130E"/>
<path d="M51.2226 85.6624C49.3716 83.0071 46.0696 81.5153 43.1446 83.0145C41.6706 83.7705 38.1626 86.2114 38.4846 88.3653C38.6996 89.8043 41.0926 90.3734 41.8016 89.0832C42.8606 87.1532 40.0186 84.9192 38.5986 84.5623C36.0076 83.9119 32.2096 87.3327 33.0516 90.2298C33.3776 91.3511 33.9216 92.2728 35.0506 92.6634C35.5436 92.8344 36.6846 93.1733 36.9786 92.4269C37.7466 90.4821 35.5226 89.3999 34.1836 90.4061C32.3276 91.7998 30.7286 95.4433 31.2666 97.8315C31.3416 98.163 31.8236 98.0226 31.7486 97.6911C31.2206 95.3462 32.9506 91.9771 34.7326 90.6384C36.4376 89.3577 36.8756 92.9991 34.8396 91.9782C32.3836 90.7471 33.8426 87.6378 35.1326 86.2568C36.6886 84.5919 39.0286 84.7249 40.5146 86.298C41.5716 87.4161 41.8506 89.6238 39.6766 89.0737C37.6196 88.5532 40.6156 85.5748 41.0816 85.1377C44.1296 82.2723 48.1536 82.1445 50.7906 85.9285C50.9796 86.1998 51.4136 85.9369 51.2226 85.6624Z" fill="#3A130E"/>
<path d="M16.0894 98.9929C15.7874 102.101 13.3644 104.245 10.7214 105.074C10.3024 105.206 9.87137 105.263 9.43637 105.276C8.06037 104.563 8.14537 104.083 9.69037 103.836C10.0474 104.219 10.2984 104.668 10.4444 105.184C11.4874 108.201 7.66337 109.425 5.67337 109.287C5.35137 109.265 5.35337 109.793 5.67337 109.815C8.36137 110.003 11.5954 108.375 10.9264 105.045C10.6364 103.601 8.49138 101.652 8.00338 103.946C7.48938 106.358 10.3614 105.78 11.5724 105.341C14.1254 104.419 16.3084 101.888 16.5904 98.9929C16.6224 98.6551 16.1224 98.6582 16.0894 98.9929Z" fill="#231012"/>
<path d="M33.5724 51.385C38.1324 49.4413 34.5054 39.6182 31.6354 41.262C29.6054 42.4245 32.0284 44.3629 33.4454 44.3988C35.0624 44.44 35.8904 43.6777 36.6094 42.1953C37.5054 40.3498 36.1504 38.0355 35.2214 36.569C35.0434 36.2871 34.6094 36.5511 34.7894 36.8351C35.3884 37.7811 35.8404 38.6183 36.2014 39.7195C36.9984 42.1468 35.1544 44.1655 33.0504 43.8012C32.7904 43.7009 32.5304 43.6006 32.2704 43.5014C31.3504 43.1308 31.3964 42.5406 32.4074 41.7287C33.0674 41.8649 33.6284 42.6842 33.9934 43.2089C35.5044 45.387 36.4314 49.6017 33.4384 50.8771C33.1444 51.0017 33.2734 51.5127 33.5724 51.385Z" fill="#231012"/>
<path d="M133.405 61.5828C135.741 68.3082 143.143 72.241 150.319 69.9721C157.495 67.7032 157.161 61.5807 157.161 61.5807C162.774 62.8994 172.762 60.1163 175.746 49.9511C178.73 39.7859 169.708 32.5464 169.708 32.5464C174.719 29.0929 177.025 18.9699 170.636 10.5024C164.247 2.03496 157.826 5.51697 157.826 5.51697C151.073 -3.81203 145.552 4.74624 145.552 4.74624C145.552 4.74624 139.076 -4.5363 126.426 2.86165C114.227 9.99565 118.202 23.097 118.202 23.097C118.202 23.097 109.986 24.8443 109.542 34.3264C109.098 43.8074 123.258 46.8386 123.258 46.8386L133.405 61.5828Z" fill="#231012"/>
<path d="M145.335 4.88021C146.021 6.01308 145.871 7.57566 145.533 8.80249C145.081 10.4421 143.492 10.4347 142.478 9.40112C141.402 8.21758 141.683 7.88606 143.32 8.40551C143.444 8.8141 143.51 9.23431 143.518 9.66613C143.582 10.7409 142.031 15.5944 139.541 12.0649C139.091 11.5328 139.119 11.0302 139.624 10.5572C140.239 11.0587 140.511 11.6922 140.441 12.4576C140.464 14.3127 138.707 17.0261 136.745 16.7273C136.43 16.6798 136.294 17.1876 136.612 17.2362C139.74 17.7113 142.91 11.5666 139.534 9.93536C138.196 9.28921 138.917 11.9382 139.109 12.331C140.119 14.3908 142.52 13.4121 143.474 11.9456C144.161 10.8887 144.459 7.60733 142.97 7.01503C141.305 6.35305 141.123 8.20386 141.784 9.33144C144.349 13.7109 147.596 7.63373 145.766 4.61204C145.594 4.32804 145.161 4.59198 145.335 4.88021Z" fill="#3A130E"/>
<path d="M134.972 48.4338C134.196 43.6172 137.202 40.9482 141.269 40.4984C142.339 40.3802 143.546 40.3781 144.529 40.8891C145.515 41.4011 144.318 44.1905 143.092 42.9616C142.597 42.4654 142.436 41.5954 142.362 40.9176C142.16 39.0657 143.322 37.6752 144.871 37.0302C145.935 36.5867 147.116 36.7271 148.185 37.0418C149.444 37.4588 150.143 38.3805 150.28 39.8069C150.356 41.3705 149.766 41.7422 148.51 40.9208C147.763 38.617 151.857 39.6052 152.639 39.8343C153.919 40.2092 155.473 40.9007 156.212 42.1349C156.384 42.4221 156.817 42.1571 156.644 41.8689C155.344 39.6981 152.016 38.7648 149.734 38.9031C148.02 39.0066 147.124 41.3484 148.823 42.3999C149.638 42.9046 150.296 41.5901 150.533 41.0411C151.082 39.7689 150.684 38.5579 149.906 37.5464C148.05 35.135 143.855 36.1296 142.394 38.4122C141.545 39.7383 141.56 42.9943 143.233 43.7302C144.605 44.3341 145.938 42.0906 145.259 40.8732C144.207 38.9855 140.025 40.0687 138.553 40.5132C135.318 41.4888 133.96 45.2812 134.491 48.5742C134.544 48.9099 135.025 48.7674 134.972 48.4338Z" fill="#3A130E"/>
<path d="M167.624 31.5242C169.813 33.338 172.887 33.3359 175.324 32.184C176.639 31.5611 179.242 29.1518 176.541 28.1847C174.936 27.6093 175.108 30.3079 175.562 31.181C177.189 34.3083 180.787 32.9664 182.581 30.7556C182.789 30.4979 182.437 30.1231 182.227 30.3818C180.775 32.1724 177.896 33.7107 176.19 31.293C175.833 30.7872 175.735 30.1157 175.721 29.5076C176.173 29.7346 176.624 29.9627 177.076 30.1897C176.763 30.6299 176.377 30.9825 175.919 31.2497C173.631 32.8344 170.204 32.997 167.977 31.1525C167.727 30.9424 167.371 31.3141 167.624 31.5242Z" fill="#231012"/>
<path d="M123.137 10.9078C119.83 12.5052 117.564 7.86288 117.414 4.99956C117.375 4.25734 117.545 3.33563 118.413 3.27651C119.911 3.1741 118.434 5.93922 118.24 6.19578C117.171 7.61371 115.319 7.11432 114.195 6.06486C113.197 5.13259 112.888 3.49294 112.63 2.1827C112.564 1.85013 112.082 1.99055 112.148 2.32313C112.705 5.1421 115.081 9.48458 118.275 6.89155C119.219 6.12504 120.455 2.1373 118.114 2.77395C114.671 3.70938 118.758 13.6001 123.389 11.3639C123.682 11.2214 123.428 10.7663 123.137 10.9078Z" fill="#231012"/>
<path d="M88.9063 43.1592C72.5513 48.6293 56.4893 65.3837 63.7963 92.2093C71.4483 120.3 92.1063 134.446 114.091 127.093C136.076 119.739 145.433 94.1477 136.186 67.9967C126.83 41.5354 105.261 37.6891 88.9063 43.1592Z" fill="#BA6E4D"/>
<path d="M84.6048 117.684C92.0986 116.28 97.2882 109.874 96.196 103.374C95.1038 96.8754 88.1434 92.745 80.6496 94.1488C73.1558 95.5526 67.9662 101.959 69.0584 108.458C70.1506 114.957 77.111 119.088 84.6048 117.684Z" fill="#B25050"/>
<path d="M117.397 96.2846C120.049 102.262 127.786 104.346 134.678 100.937C141.57 97.5294 145.008 89.9203 142.357 83.9434C139.705 77.9655 131.968 75.8824 125.076 79.2905C118.183 82.6986 114.745 90.3067 117.397 96.2846Z" fill="#B25050"/>
<path d="M101.687 75.9236C101.687 75.9236 102.94 87.9639 105.854 95.7102C105.854 95.7102 110.778 90.3954 113.093 93.2893C115.524 96.3279 110.605 105.646 110.605 105.646" fill="#BA6E4D"/>
<path d="M101.687 75.9236C101.687 75.9236 102.94 87.9639 105.854 95.7102C105.854 95.7102 110.778 90.3954 113.093 93.2893C115.524 96.3279 110.605 105.646 110.605 105.646" stroke="#AA5044" stroke-width="0.75" stroke-miterlimit="10" stroke-linecap="round" stroke-linejoin="round"/>
<path d="M99.4644 110.929C99.4644 110.929 113.111 117.578 120.462 103.906Z" fill="#BA6E4D"/>
<path d="M99.4644 110.929C99.4644 110.929 113.111 117.578 120.462 103.906" stroke="#AA5044" stroke-width="0.75" stroke-miterlimit="10" stroke-linecap="round" stroke-linejoin="round"/>
<path d="M81.0063 82.9752C80.2653 80.2016 81.6523 76.9329 83.4023 74.911C85.1923 72.7298 88.0803 71.335 90.8273 71.7172C89.2033 73.5955 87.1282 75.0345 85.6222 77.0395C83.9262 78.8481 82.5063 80.9882 81.0063 82.9752Z" fill="#231012"/>
<path d="M105.839 66.4573C107.162 64.5357 109.998 64.3805 111.977 64.8989C114.228 65.4881 116.389 67.2523 117.172 69.6067C115.222 69.4367 113.275 68.6185 111.418 68.0156C109.579 67.4223 107.724 66.8701 105.839 66.4573Z" fill="#231012"/>
<path d="M92.8233 88.2669C92.6053 87.5627 92.2753 86.9535 91.8913 86.4868C92.6473 84.73 92.5333 82.4906 91.1563 81.2131C90.8653 81.2543 91.0862 82.5466 91.0802 82.8412C91.0612 83.7629 90.9093 84.6888 90.6443 85.5704C90.3503 85.4796 90.0552 85.4733 89.7782 85.5693C88.6752 85.9505 88.2513 87.7749 88.8313 89.6458C89.4113 91.5166 90.7742 92.7234 91.8772 92.3433C92.9792 91.9622 93.4033 90.1378 92.8233 88.2669Z" fill="#231012"/>
<path d="M115.985 80.7444C115.791 79.8248 115.401 79.0446 114.926 78.504C115.574 76.7873 115.413 74.6884 114.098 73.4668C113.807 73.508 114.028 74.8003 114.022 75.0948C114.004 75.9817 113.864 76.8717 113.618 77.7227C113.478 77.709 113.339 77.7164 113.201 77.7491C112.187 77.9877 111.615 79.4384 111.797 81.1181C111.78 81.172 111.784 81.2121 111.814 81.2311C111.834 81.3895 111.852 81.5479 111.886 81.7094C112.292 83.6299 113.539 84.9707 114.671 84.7047C115.802 84.4386 116.39 82.6649 115.985 80.7444Z" fill="#231012"/>
<path d="M138.232 77.0618C117.875 74.7432 116.428 58.4365 116.428 58.4365C102.813 59.3951 91.0843 47.3348 91.0843 47.3348C94.8803 68.343 78.2083 70.2498 78.2083 70.2498C83.7513 91.4174 65.7833 98.9283 65.7833 98.9283L59.6103 94.7326C45.2573 83.6172 55.1143 73.7233 55.1143 73.7233C46.9233 57.8938 61.2533 48.1562 61.2533 48.1562C65.3953 29.4898 82.6713 34.4858 82.6713 34.4858C82.6713 34.4858 88.0923 27.109 98.2523 26.1545C108.412 25.2011 113.358 35.3875 113.358 35.3875C113.358 35.3875 121.066 33.3392 126.931 38.6636C132.797 43.9879 133.127 52.769 133.127 52.769C133.127 52.769 140.773 57.9339 140.889 66.716C141.006 75.4981 138.232 77.0618 138.232 77.0618Z" fill="#3A130E"/>
<path d="M61.0135 48.3843C61.3965 50.5339 62.2685 52.9896 64.7115 52.5895C66.0505 52.3699 67.3255 49.8339 66.6985 48.5542C66.1345 47.4024 64.5144 48.0981 64.4894 49.307C64.4374 51.7639 65.9134 53.677 68.2864 53.6527C70.4244 53.6305 71.1934 51.2898 70.9364 49.4496C70.6654 47.5164 69.1244 48.4634 68.7254 49.7367C67.5084 53.6189 74.1574 56.6585 75.6864 51.974C75.7914 51.6509 75.3084 51.5136 75.2044 51.8335C74.3184 54.548 72.0374 54.4192 70.3214 52.751C69.8094 52.2537 69.4854 51.616 69.2604 50.934C68.9264 50.0524 69.3245 49.6048 70.4535 49.59C70.5925 50.2794 70.5394 50.9562 70.2944 51.6203C69.5074 53.583 67.2474 53.4088 65.9934 52.3192C65.6254 51.8557 65.3534 51.3342 65.1784 50.7556C64.8154 50.044 65.1615 49.7315 66.2165 49.8159C65.9115 51.7364 63.8874 53.3623 62.3174 50.8928C61.8354 50.1348 61.6534 49.1275 61.4964 48.2449C61.4354 47.9092 60.9535 48.0517 61.0135 48.3843Z" fill="#231012"/>
<path d="M77.3835 70.3344C77.2025 71.7491 76.1155 73.1629 74.9705 73.8544C74.5295 74.1215 74.0685 74.3443 73.5865 74.5206C71.9945 74.7993 71.4054 74.1542 71.8204 72.5843C72.8584 72.1598 73.0905 73.9009 73.1585 74.4668C73.2715 75.4022 73.1535 76.382 72.9125 77.2815C72.3725 79.2928 69.4515 78.9233 67.9865 78.6287C67.6715 78.5653 67.5365 79.0742 67.8535 79.1376C70.1555 79.599 72.9555 79.6074 73.5485 76.7726C73.7755 75.6851 74.0005 72.1292 72.2645 72.0279C70.3015 71.9138 70.6544 74.6325 72.1664 75.0548C74.5884 75.7305 77.5515 72.9369 77.8665 70.4727C77.9085 70.1412 77.4265 69.9976 77.3835 70.3344Z" fill="#231012"/>
<path d="M112.655 35.303C113.111 36.7505 112.766 38.4081 112.42 39.8408C112.206 40.7277 111.865 41.5712 111.414 42.3504C109.875 45.0152 108.022 40.9473 109.847 41.2154C110.768 41.3506 111.428 42.1488 111.722 43.0282C112.319 44.8189 110.8 46.2136 109.374 46.6771C108.842 46.8217 108.311 46.8217 107.78 46.6771C106.336 46.3624 106.396 44.1157 108.589 46.2262C110.727 48.2829 108.371 50.5223 106.622 51.4788C106.336 51.6351 106.588 52.0912 106.874 51.9349C108.081 51.274 110.208 50.0007 109.978 48.2312C109.713 46.1893 108.148 44.499 106.124 44.7017C105.96 44.7186 105.842 44.8569 105.883 45.0353C106.61 48.227 110.302 47.6685 111.852 45.4893C113.339 43.3988 111.196 39.8524 108.777 40.7921C107.159 41.4203 109.381 44.5771 110.821 43.6681C113.014 42.285 113.898 37.5751 113.138 35.1636C113.036 34.8416 112.553 34.9789 112.655 35.303Z" fill="#231012"/>
<path d="M132.712 52.4564C132.624 54.285 129.513 56.8706 128.146 54.8002C127.822 54.3103 127.815 52.8132 128.686 53.282C129.218 53.5681 129.516 54.2512 129.668 54.8182C130.281 57.0955 127.411 58.164 125.787 57.8557C125.472 57.7955 125.337 58.3044 125.654 58.3646C127.562 58.7267 130.607 57.5474 130.196 54.967C130.046 54.0284 128.535 51.4861 127.605 53.1067C126.672 54.7327 128.424 56.0429 129.756 55.9616C131.526 55.855 133.121 54.3336 133.212 52.4553C133.228 52.1164 132.728 52.1175 132.712 52.4564Z" fill="#231012"/>
<path d="M138.43 97.975L138.063 77.8526C138.063 77.8526 139.231 63.0884 146.972 64.2149C154.713 65.3414 159.485 86.9588 138.43 97.975Z" fill="#BA6E4D"/>
<path d="M153.546 77.7555C152.947 84.6192 148.799 92.6147 138.36 97.976L138.14 78.4386C141.471 75.1772 149.751 68.4581 153.546 77.7555Z" fill="#AA5044"/>
<path d="M76.3705 116.708L66.9595 99.2049C66.9595 99.2049 58.8185 87.1382 52.7055 92.2778C46.5925 97.4174 52.9385 118.58 76.3705 116.708Z" fill="#BA6E4D"/>
<path d="M53.6674 107.169C57.4224 112.808 64.7884 117.563 76.3704 116.729L67.3524 99.6663C62.9274 98.5883 52.5784 97.1102 53.6674 107.169Z" fill="#AA5044"/>
<path d="M187.014 215.324C183.56 211.998 181.58 207.933 180.795 204.878C180.337 203.098 181.333 201.263 183.019 200.781C184.699 200.298 186.433 201.341 186.897 203.113C186.926 203.219 187.957 206.888 190.958 210.024C194.899 214.143 200.403 215.533 207.329 214.168C214.145 212.825 219.38 208.755 222.47 202.4C226.725 193.646 226.382 181.917 221.552 171.025C215.542 157.474 208.709 133.947 215.887 119.672C219.6 112.287 226.132 107.623 234.776 106.18C236.502 105.89 241.086 106.138 242.673 110.493C244.113 114.441 241.253 116.477 239.527 116.765C232.829 117.883 228.147 121.329 225.238 126.792C217.101 142.068 221.463 155.073 227.281 168.193C232.935 180.942 233.241 194.871 228.098 205.45C224.139 213.594 217.175 219.022 208.49 220.733C198.45 222.713 191.493 219.639 187.014 215.324Z" fill="#D6632C"/>
<path d="M224.981 127.294C225.067 127.126 225.147 126.961 225.237 126.793C228.147 121.33 232.828 117.884 239.526 116.766C241.252 116.478 244.112 114.442 242.672 110.494C241.084 106.139 236.501 105.891 234.775 106.181C226.362 107.585 219.959 112.049 216.199 119.092C217.845 121.874 220.61 125.26 224.981 127.294Z" fill="#EFD79A"/>
<mask id="mask0_49_184" style="mask-type:luminance" maskUnits="userSpaceOnUse" x="180" y="106" width="64" height="116">
<path d="M187.014 215.324C183.56 211.998 181.58 207.933 180.795 204.878C180.337 203.098 181.333 201.263 183.019 200.781C184.699 200.298 186.433 201.341 186.897 203.113C186.926 203.219 187.957 206.888 190.958 210.024C194.899 214.143 200.403 215.533 207.329 214.168C214.145 212.825 219.38 208.755 222.47 202.4C226.725 193.646 226.382 181.917 221.552 171.025C215.542 157.474 208.709 133.947 215.887 119.672C219.6 112.287 226.132 107.623 234.776 106.18C236.502 105.89 241.086 106.138 242.673 110.493C244.113 114.441 241.253 116.477 239.527 116.765C232.829 117.883 228.147 121.329 225.238 126.792C217.101 142.068 221.463 155.073 227.281 168.193C232.935 180.942 233.241 194.871 228.098 205.45C224.139 213.594 217.175 219.022 208.49 220.733C198.45 222.713 191.493 219.639 187.014 215.324Z" fill="white"/>
</mask>
<g mask="url(#mask0_49_184)">
<path d="M209 132.457C209 132.457 215.868 141.183 224.682 137.92" stroke="#EFD79A" stroke-width="6" stroke-miterlimit="10"/>
<path d="M224.583 147.614C224.583 147.614 217.49 154.832 210.894 150.573" stroke="#EFD79A" stroke-width="6" stroke-miterlimit="10"/>
<path d="M229.5 160.423C229.5 160.423 222.901 171.164 216.725 168.831" stroke="#EFD79A" stroke-width="6" stroke-miterlimit="10"/>
<path d="M219.454 178.656C219.454 178.656 226.805 183.362 233.436 179.653" stroke="#EFD79A" stroke-width="6" stroke-miterlimit="10"/>
<path d="M220.759 191.02C220.759 191.02 227.366 197.247 234.894 194.812" stroke="#EFD79A" stroke-width="6" stroke-miterlimit="10"/>
<path d="M219.072 201.231C219.072 201.231 221.682 209.772 229.165 213.666" stroke="#EFD79A" stroke-width="6" stroke-miterlimit="10"/>
<path d="M212.25 209.125C212.25 209.125 211.298 218.154 215.971 222.656" stroke="#EFD79A" stroke-width="6" stroke-miterlimit="10"/>
<path d="M201.522 211.299C201.522 211.299 197.892 218.802 200.173 224.917" stroke="#EFD79A" stroke-width="6" stroke-miterlimit="10"/>
<path d="M194.564 207.46C194.564 207.46 188.137 212.42 186.416 219.201" stroke="#EFD79A" stroke-width="6" stroke-miterlimit="10"/>
</g>
<path d="M141.145 138.157C141.145 138.157 139.498 173.628 146.793 197.608C146.793 197.608 139.218 203.687 142.654 219.899C142.654 219.899 136.427 208.711 129.135 212.06C129.135 212.06 140.138 230.369 146.793 235.097C146.793 235.097 192.157 235.097 206.872 235.097C221.587 235.097 225.426 215.508 217.109 198.283C208.792 181.058 173.599 139.64 173.599 139.64L141.145 138.157Z" fill="#FF8326"/>
<path d="M201.432 191.529C201.432 191.529 173.272 192.018 174.716 226.223C174.716 226.223 166.892 211.794 158.25 217.197L174.647 235.098" stroke="#EB9B22" stroke-width="0.75" stroke-miterlimit="10" stroke-linecap="round" stroke-linejoin="round"/>
<path d="M156.195 159.267C156.195 159.267 152.782 173.628 145.117 177.681C137.452 181.734 128.175 183.085 121.138 191.529C114.1 199.972 117.299 208.079 122.737 207.065C128.175 206.051 130.773 199.634 136.192 196.933C136.192 196.933 152.817 193.893 158.251 189.84C163.684 185.787 172.327 177.343 179.842 177.681" fill="#FF8326"/>
<path d="M122.669 194.612C122.669 194.612 118.26 196.256 117.3 203.012" stroke="#EB9B22" stroke-width="0.75" stroke-miterlimit="10" stroke-linecap="round" stroke-linejoin="round"/>
<path d="M124.467 198.284C124.467 198.284 120.629 201.624 120.884 207.047" stroke="#EB9B22" stroke-width="0.75" stroke-miterlimit="10" stroke-linecap="round" stroke-linejoin="round"/>
<path d="M145.968 194.698C150.603 193.449 155.68 191.758 158.251 189.841C163.684 185.788 172.327 177.344 179.842 177.682" stroke="#EB9B22" stroke-width="0.75" stroke-miterlimit="10" stroke-linecap="round" stroke-linejoin="round"/>
<path d="M156.194 159.267C156.194 159.267 152.781 173.628 145.116 177.681C144.393 178.063 143.655 178.422 142.906 178.764" stroke="#EB9B22" stroke-width="0.75" stroke-miterlimit="10" stroke-linecap="round" stroke-linejoin="round"/>
<path d="M173.598 139.641L141.144 138.157C141.144 138.157 140.857 144.387 141.057 153.376C144.444 158.275 150.462 165.141 158.251 166.454C165.853 167.734 179.54 162.543 188.951 158.359C180.521 147.789 173.598 139.641 173.598 139.641Z" fill="#D6632C"/>
<path d="M162.062 106.977C155.934 89.7852 143.447 84.312 143.447 84.312C132.7 101.3 138.984 116.714 138.984 116.714L162.062 106.977Z" fill="#D6632C"/>
<path d="M157.974 107.587C153.66 95.4835 144.868 91.6309 144.868 91.6309C137.302 103.591 141.727 114.443 141.727 114.443L157.974 107.587Z" fill="#F5ADA1"/>
<path d="M177.811 111.523C191.371 100.015 204.759 102.013 204.759 102.013C205.824 122.41 192.984 132.304 192.984 132.304L177.811 111.523Z" fill="#D6632C"/>
<path d="M181.036 114.244C190.583 106.142 200.009 107.548 200.009 107.548C200.759 121.909 191.719 128.874 191.719 128.874L181.036 114.244Z" fill="#F5ADA1"/>
<path d="M194.761 124.279C192.03 118.485 183.376 109.882 170.721 106.228C170.72 106.228 170.719 106.228 170.718 106.228C158.062 102.575 146.467 105.334 141.323 108.854C136.179 112.374 121.923 131.238 124.525 142.202C124.525 142.202 131.962 142.115 140.605 148.121C149.247 154.126 151.343 155.37 157.53 157.156C163.717 158.942 166.121 158.997 176.455 158.47C186.789 157.942 193.15 162.013 193.15 162.013C200.674 153.971 197.492 130.073 194.761 124.279Z" fill="#FF8326"/>
<path d="M128.134 126.151C138.622 121.167 150.056 121.825 150.056 121.825C142.304 118.921 135.804 119.407 131.41 120.503C130.243 122.304 129.127 124.209 128.134 126.151Z" fill="#EFD79A"/>
<path d="M124.942 134.215C124.191 137.09 123.962 139.831 124.525 142.201C124.525 142.201 126.303 142.185 129.119 142.861C136.031 132.959 146.935 128.038 146.935 128.038C137.411 126.986 129.768 130.761 124.942 134.215Z" fill="#EFD79A"/>
<path d="M137.473 146.166C140.906 139.249 145.192 134.763 145.192 134.763C140.419 136.877 136.236 141.246 133.688 144.35C134.885 144.839 136.15 145.428 137.473 146.166Z" fill="#EFD79A"/>
<path d="M197.778 146.256C191.151 136.331 180.991 130.756 180.991 130.756C189.064 132.42 194.426 136.33 197.68 139.633C197.817 141.81 197.859 144.051 197.778 146.256Z" fill="#EFD79A"/>
<path d="M196.639 154.913C195.901 157.791 194.776 160.273 193.149 162.012C193.149 162.012 191.626 161.044 188.876 160.113C187.698 147.875 180.682 137.781 180.682 137.781C189.389 141.991 194.149 149.347 196.639 154.913Z" fill="#EFD79A"/>
<path d="M180.092 158.469C180.47 150.671 178.942 144.506 178.942 144.506C182.033 148.89 183.527 154.898 184.226 158.939C182.96 158.717 181.587 158.545 180.092 158.469Z" fill="#EFD79A"/>
<path d="M173.218 134.444C172.74 136.651 173.444 138.704 174.79 139.028C176.136 139.354 177.614 137.827 178.092 135.62C178.57 133.414 177.866 131.361 176.52 131.036C175.174 130.712 173.696 132.238 173.218 134.444Z" fill="#3A130E"/>
<path d="M174.79 139.028C173.444 138.704 172.74 136.652 173.218 134.444C173.32 133.974 173.469 133.538 173.65 133.141L177.744 136.733C177.088 138.315 175.895 139.296 174.79 139.028Z" fill="#231012"/>
<path d="M175.798 134.372C175.638 135.108 175.846 135.787 176.261 135.887C176.676 135.988 177.142 135.472 177.301 134.736C177.46 134 177.253 133.321 176.838 133.22C176.423 133.12 175.958 133.635 175.798 134.372Z" fill="#EFF6FE"/>
<path d="M163.059 134.504C164.767 134.916 169.499 136.382 169.264 137.943C169.028 139.505 161.728 140.657 161.728 140.657C161.728 140.657 155.626 136.271 156.056 134.757C156.485 133.242 161.351 134.092 163.059 134.504Z" fill="#231012"/>
<path d="M153.519 139.592C153.519 139.592 154.1 143.345 157.355 143.662C161.001 144.018 161.728 140.657 161.728 140.657C161.728 140.657 161 144.018 164.43 145.37C167.492 146.576 169.559 143.463 169.559 143.463" stroke="#231012" stroke-miterlimit="10" stroke-linecap="round" stroke-linejoin="round"/>
<path d="M149.885 128.815C149.407 131.021 150.111 133.075 151.457 133.399C152.803 133.724 154.281 132.198 154.759 129.991C155.237 127.784 154.533 125.731 153.187 125.407C151.842 125.082 150.363 126.608 149.885 128.815Z" fill="#231012"/>
<path d="M151.458 133.399C150.112 133.074 149.408 131.021 149.886 128.815C149.988 128.345 150.137 127.909 150.318 127.513L154.412 131.105C153.755 132.684 152.562 133.665 151.458 133.399Z" fill="#231012"/>
<path d="M152.465 128.743C152.306 129.479 152.513 130.158 152.928 130.258C153.343 130.358 153.809 129.843 153.968 129.106C154.127 128.37 153.92 127.691 153.505 127.591C153.091 127.491 152.625 128.006 152.465 128.743Z" fill="#EFF6FE"/>
<path d="M238.324 246.085C235.298 252.493 185.244 243.276 160.087 239.063C155.895 239.003 145.116 236.86 136.027 235.562C126.938 234.263 111.902 233.292 111.691 231.366C111.552 230.091 127.654 228.099 125.639 227.906C123.624 227.713 103.346 225.308 104.811 224.019C106.276 222.73 128.978 220.827 125.467 220.313C121.956 219.798 98.9185 215.77 100.108 213.738C101.298 211.708 127.392 215.788 125.285 214.693C123.178 213.598 100.32 205.36 101.297 203.845C102.273 202.33 114.027 205.421 116.988 206.42C119.949 207.418 139.528 210.383 140.431 209.261C141.334 208.139 139.51 206.377 135.907 202.995C132.304 199.611 131.298 195.417 131.527 193.086C131.841 189.875 134.711 191.201 140.271 197.515C143.684 201.391 148.76 204.137 154.743 207.391C159.415 209.931 162.058 217.451 162.993 220.627C180.407 218.803 206.241 215.334 212.088 213.766C222.221 211.047 244.726 232.528 238.324 246.085Z" fill="#AA5044"/>
<path d="M233.301 226.616C233.022 225.367 217.236 229.263 219.069 228.359C220.902 227.455 239.204 217.927 237.411 217.239C235.618 216.55 213.654 222.895 216.791 221.153C219.928 219.411 240.304 207.367 238.532 205.883C236.76 204.4 213.525 217.588 215.155 215.803C216.785 214.017 235.639 198.078 234.233 197.002C232.827 195.927 222.766 203.047 220.301 205.047C217.837 207.048 200.371 216.852 199.161 216.119C197.951 215.388 199.102 213.077 201.403 208.603C203.704 204.13 203.302 199.824 202.338 197.713C201.01 194.805 198.736 197.081 195.536 205.012C193.572 209.882 189.681 214.282 185.098 219.487C181.52 223.551 181.45 231.572 181.592 234.895C164.625 239.419 133.106 247.956 127.202 246.652C120.439 245.159 111.478 216.798 105.178 201.498C98.8785 186.197 85.8975 154.631 79.0915 161.296C69.9275 170.27 66.9835 201.06 85.3395 238.884C98.4815 265.963 110.497 284.715 118.918 285.835C125.647 286.729 167.945 264.174 190.254 251.195C194.178 249.637 203.627 243.759 211.759 239.28C219.891 234.805 233.722 228.503 233.301 226.616Z" fill="#BA6E4D"/>
</svg>
