<svg width="243" height="273" viewBox="0 0 243 273" fill="none" xmlns="http://www.w3.org/2000/svg">
<path d="M184.356 229.738C180.757 226.272 178.694 222.036 177.875 218.853C177.398 216.998 178.436 215.086 180.192 214.583C181.943 214.081 183.749 215.167 184.232 217.012C184.262 217.122 185.336 220.945 188.464 224.214C192.57 228.506 198.305 229.954 205.523 228.532C212.625 227.132 218.08 222.892 221.299 216.27C225.733 207.147 225.376 194.926 220.343 183.578C214.08 169.457 206.96 144.942 214.44 130.068C218.309 122.374 225.115 117.512 234.122 116.01C235.921 115.708 240.696 115.968 242.351 120.503C243.852 124.618 240.871 126.739 239.073 127.039C232.093 128.204 227.216 131.795 224.184 137.487C215.705 153.404 220.25 166.956 226.313 180.626C232.205 193.911 232.523 208.424 227.164 219.447C223.039 227.934 215.783 233.589 206.733 235.373C196.273 237.437 189.023 234.234 184.356 229.738Z" fill="#D6986E"/>
<path d="M223.918 138.012C224.008 137.837 224.091 137.664 224.184 137.489C227.216 131.797 232.094 128.206 239.073 127.041C240.871 126.741 243.852 124.62 242.351 120.505C240.697 115.969 235.921 115.71 234.122 116.012C225.356 117.475 218.684 122.126 214.766 129.465C216.482 132.364 219.362 135.891 223.918 138.012Z" fill="#AD7041"/>
<mask id="mask0_37_1014" style="mask-type:luminance" maskUnits="userSpaceOnUse" x="177" y="115" width="66" height="122">
<path d="M184.356 229.738C180.757 226.272 178.694 222.036 177.875 218.853C177.398 216.998 178.436 215.086 180.192 214.583C181.943 214.081 183.749 215.167 184.232 217.012C184.262 217.122 185.336 220.945 188.464 224.214C192.57 228.506 198.305 229.954 205.523 228.532C212.625 227.132 218.08 222.892 221.299 216.27C225.733 207.147 225.376 194.926 220.343 183.578C214.08 169.457 206.96 144.942 214.44 130.068C218.309 122.374 225.115 117.512 234.122 116.01C235.921 115.708 240.696 115.968 242.351 120.503C243.852 124.618 240.871 126.739 239.073 127.039C232.093 128.204 227.216 131.795 224.184 137.487C215.705 153.404 220.25 166.956 226.313 180.626C232.205 193.911 232.523 208.424 227.164 219.447C223.039 227.934 215.783 233.589 206.733 235.373C196.273 237.437 189.023 234.234 184.356 229.738Z" fill="white"/>
</mask>
<g mask="url(#mask0_37_1014)">
<path d="M207.264 143.391C207.264 143.391 214.421 152.483 223.606 149.083" stroke="#AD7041" stroke-width="6" stroke-miterlimit="10"/>
<path d="M223.501 159.185C223.501 159.185 216.11 166.705 209.238 162.266" stroke="#AD7041" stroke-width="6" stroke-miterlimit="10"/>
<path d="M228.625 172.531C228.625 172.531 221.748 183.722 215.312 181.292" stroke="#AD7041" stroke-width="6" stroke-miterlimit="10"/>
<path d="M218.156 191.529C218.156 191.529 225.816 196.433 232.725 192.569" stroke="#AD7041" stroke-width="6" stroke-miterlimit="10"/>
<path d="M219.517 204.413C219.517 204.413 226.402 210.901 234.246 208.364" stroke="#AD7041" stroke-width="6" stroke-miterlimit="10"/>
<path d="M217.76 215.052C217.76 215.052 220.479 223.952 228.277 228.009" stroke="#AD7041" stroke-width="6" stroke-miterlimit="10"/>
<path d="M210.65 223.278C210.65 223.278 209.659 232.686 214.528 237.377" stroke="#AD7041" stroke-width="6" stroke-miterlimit="10"/>
<path d="M199.472 225.543C199.472 225.543 195.69 233.362 198.066 239.734" stroke="#AD7041" stroke-width="6" stroke-miterlimit="10"/>
<path d="M192.221 221.543C192.221 221.543 185.524 226.711 183.731 233.778" stroke="#AD7041" stroke-width="6" stroke-miterlimit="10"/>
</g>
<path d="M162.143 153.459L124.897 145.989C104.462 175.917 97.6499 240.002 100.856 270.131C107.916 271.594 115.209 272.369 122.675 272.369C147.538 272.369 170.515 263.856 189.146 249.45C200.936 190.984 162.143 153.459 162.143 153.459Z" fill="#AD7041"/>
<path d="M153.869 222.432C153.869 222.432 172.527 257.875 181.861 262.45C191.194 267.024 199.194 267.377 202.528 264.913C205.861 262.45 205.861 251.468 204.528 245.204C203.195 238.941 178.87 193.822 172.865 183.968C166.861 174.115 155.528 154.406 140.861 164.612C126.194 174.819 144.992 203.188 153.869 222.432Z" fill="#E0A375"/>
<path d="M127.037 50.4123C127.719 53.698 123.783 56.7989 120.984 55.3514C120.395 55.0462 121.437 54.9512 121.652 54.8868C122.625 54.5933 123.556 54.1298 124.345 53.4541C125.002 52.9484 125.583 52.3265 126.078 51.6466C126.248 51.4132 126.78 50.2624 127.037 50.4123Z" fill="#231012"/>
<path d="M60.5277 112.879C62.7097 114.793 69.6947 114.745 76.8607 112C84.0347 109.252 80.8608 99.3305 80.1938 92.6441C79.5268 85.9578 84.1247 78.7425 86.5757 78.9188C89.0267 79.0951 119.515 51.8979 119.515 51.8979C119.515 51.8979 128.861 51.5948 132.528 42.8212C136.195 34.0475 134.695 25.4249 132.528 24.1938C130.361 22.9617 124.98 27.1849 119.837 27.8891C119.837 27.8891 125.264 24.898 126.813 16.099C128.361 7.30111 125.324 2.37373 122.676 0.438461C120.028 -1.49681 116.019 3.42952 104.94 6.5969C93.8608 9.76428 80.6947 13.8111 65.8607 15.9227C51.0277 18.0343 36.0278 25.2486 36.6938 43.5497C37.3608 61.8498 51.8608 80.1509 55.6938 93.172C59.5278 106.192 57.3607 110.104 60.5277 112.879Z" fill="#915933"/>
<path d="M122.675 51.749C122.675 51.749 126.86 63.6088 136.194 68.0082C136.194 68.0082 131.103 75.0409 124.861 76.2783L122.675 51.749Z" fill="#CE8061"/>
<path d="M105.444 20.6728C115.508 21.7064 121.694 37.8295 124.944 54.1943C128.194 70.5591 127.406 99.5934 122.675 101.969C117.944 104.345 103.194 102.761 97.444 104.345C91.694 105.928 102.194 138.13 102.194 138.13L63.444 145.784C63.444 145.784 67.194 126.78 60.944 101.441C54.694 76.102 40.095 48.9269 49.095 36.6343C58.095 24.3417 87.444 18.8252 105.444 20.6728Z" fill="#E0A375"/>
<path d="M116.527 37.5656C115.392 39.39 114.054 41.0571 112.874 42.8456C111.541 44.4916 110.594 46.4849 109.194 48.075C107.591 43.553 111.735 36.9997 116.527 37.5656Z" fill="#915933"/>
<path d="M120.899 70.4597C121.173 77.0542 115.231 82.6848 107.627 83.0364C100.023 83.3879 93.6376 78.3275 93.3636 71.733C93.0896 65.1386 99.0326 59.508 106.636 59.1553C114.239 58.8048 120.625 63.8663 120.899 70.4597Z" fill="#E5806E"/>
<path d="M119.184 54.1235C120.585 52.4891 121.028 49.7578 119.632 48.0696C119.338 48.0706 119.396 49.3819 119.354 49.6733C119.2 50.7217 118.877 51.7543 118.408 52.695C117.917 52.1133 117.321 51.806 116.74 51.9201C115.599 52.1449 114.952 53.8944 115.294 55.8297C115.636 57.7639 116.837 59.1501 117.977 58.9263C119.117 58.7014 119.765 56.952 119.423 55.0167C119.368 54.701 119.282 54.4064 119.184 54.1235Z" fill="#231012"/>
<path d="M112.86 76.2783C112.86 76.2783 117.43 85.0794 126.812 83.0544" stroke="#B76C53" stroke-width="0.75" stroke-miterlimit="10" stroke-linecap="round" stroke-linejoin="round"/>
<path d="M87.2031 89.1243C87.2031 89.1243 88.3551 105.267 96.1951 114.327C95.4111 109.077 95.4611 104.891 97.4431 104.346C103.193 102.762 117.943 104.346 122.674 101.97C122.674 101.97 100.86 101.619 96.1931 98.0985C91.5281 94.5785 87.2031 89.1243 87.2031 89.1243Z" fill="#CE8061"/>
<path d="M122.675 0.437484C120.027 -1.49779 116.018 3.42856 104.939 6.59594C93.8608 9.76332 80.6937 13.8102 65.8607 15.9218C51.0277 18.0333 36.0278 25.2476 36.6938 43.5487C37.3608 61.8488 51.8608 80.1499 55.6938 93.1711C59.5268 106.192 57.3607 110.104 60.5267 112.88C62.7087 114.793 69.6937 114.745 76.8597 112C84.0337 109.252 80.8597 99.3306 80.1927 92.6442C79.5897 86.5998 83.2848 80.1436 85.8108 79.0857L87.0818 65.505C100.971 55.4348 95.8597 39.6782 95.8597 39.6782C102.693 37.9182 114.153 34.888 119.836 27.8881L120.928 27.1016C122.594 25.7311 125.699 22.4181 126.812 16.0981C128.361 7.30015 125.323 2.37275 122.675 0.437484Z" fill="#AD7041"/>
<path d="M95.5998 54.1181C95.5998 54.1181 61.2427 59.0212 39.1357 31.313C39.1357 31.313 67.9358 53.4804 96.7318 48.0748" stroke="#915933" stroke-width="0.5" stroke-miterlimit="10" stroke-linecap="round" stroke-linejoin="round"/>
<path d="M124.897 2.82251C124.897 2.82251 121.361 18.2097 105.694 21.9049C90.0267 25.6002 58.0007 12.6372 40.6807 28.7085" stroke="#915933" stroke-width="0.5" stroke-miterlimit="10" stroke-linecap="round" stroke-linejoin="round"/>
<path d="M122.278 25.8167C122.278 25.8167 104.848 34.8839 81.0215 21.2673" stroke="#915933" stroke-width="0.5" stroke-miterlimit="10" stroke-linecap="round" stroke-linejoin="round"/>
<path d="M91.944 84.3446L87.7049 66.6442C87.7049 66.6442 82.3319 55.3155 75.1789 61.2164C68.0259 67.1161 79.203 88.3566 91.944 84.3446Z" fill="#E0A375"/>
<path d="M91.9443 84.3446L87.7053 66.6442C87.7053 66.6442 87.4863 66.1849 87.0833 65.505C84.7433 64.5822 81.3043 64.1261 78.0853 67.1172C76.0603 68.9986 75.5373 72.4289 75.8353 76.0503C79.2833 81.8064 85.4043 86.4034 91.9443 84.3446Z" fill="#CE8061"/>
<path d="M22.8698 16.7052C-2.59122 17.5393 -1.96322 46.4522 5.36978 62.021C12.7028 77.5897 33.7028 122.109 5.53678 139.882C5.53678 139.882 23.5368 141.993 36.7038 128.091C49.8708 114.19 51.9108 85.1238 49.2038 61.0486C46.4958 36.9733 44.3698 16.001 22.8698 16.7052Z" fill="#915933"/>
<path d="M32.6581 18.3049C32.6581 18.3049 20.0281 16.2165 17.1941 31.2901C14.3611 46.3647 28.7881 67.4806 32.6581 87.0128C36.5281 106.545 26.0461 133.097 5.53711 139.882" stroke="#AD7041" stroke-width="0.5" stroke-miterlimit="10" stroke-linecap="round" stroke-linejoin="round"/>
<path d="M20.7852 138.015C20.7852 138.015 35.7081 128.013 33.4511 93.1714" stroke="#AD7041" stroke-width="0.5" stroke-miterlimit="10" stroke-linecap="round" stroke-linejoin="round"/>
<path d="M9.16788 21.2673C9.16788 21.2673 1.08986 31.5349 5.53586 49.3219C11.5269 73.2863 32.2159 100.405 22.5379 127.494" stroke="#AD7041" stroke-width="0.5" stroke-miterlimit="10" stroke-linecap="round" stroke-linejoin="round"/>
<path d="M42.1938 30.3511C42.1938 30.3511 69.6938 106.72 34.6938 133.115" stroke="#915933" stroke-width="0.5" stroke-miterlimit="10" stroke-linecap="round" stroke-linejoin="round"/>
<path d="M2.02773 39.6772C2.02773 39.6772 -0.78727 50.4115 5.53673 67.8321C11.8607 85.2527 22.5277 116.927 8.86074 133.115" stroke="#915933" stroke-width="0.5" stroke-miterlimit="10" stroke-linecap="round" stroke-linejoin="round"/>
<path d="M104.731 144.558C104.004 154.561 99.801 161.222 93.597 160.098C87.392 158.973 85.334 149.7 86.941 139.812C88.548 129.923 92.785 125.649 98.99 126.774C102.093 127.335 108.118 131.879 108.872 135.569C109.624 139.26 105.562 133.102 104.731 144.558Z" fill="#D6986E"/>
<path d="M90.1629 143.827C90.1629 143.827 88.3329 154.183 90.5419 158.658" stroke="#AD7041" stroke-width="0.75" stroke-miterlimit="10" stroke-linecap="round" stroke-linejoin="round"/>
<path d="M96.8279 145.035C96.8279 145.035 96.3329 152.498 99.6939 158.272" stroke="#AD7041" stroke-width="0.75" stroke-miterlimit="10" stroke-linecap="round" stroke-linejoin="round"/>
<path d="M149.268 110.298C149.268 110.298 148.985 98.9399 135.741 88.3123C135.741 88.3123 127.835 93.6472 123.901 111.653L149.268 110.298Z" fill="#AD7041"/>
<path d="M145.797 109.345C145.797 109.345 145.598 101.373 136.303 93.9133C136.303 93.9133 130.754 97.6572 127.993 110.295L145.797 109.345Z" fill="#F5ADA1"/>
<path d="M166.101 117.917C166.101 117.917 174.087 110.301 190.51 113.099C190.51 113.099 192.303 122.823 182.664 138.247L166.101 117.917Z" fill="#AD7041"/>
<path d="M169.149 119.913C169.149 119.913 174.754 114.568 186.281 116.532C186.281 116.532 187.539 123.356 180.774 134.182L169.149 119.913Z" fill="#F5ADA1"/>
<path d="M184.809 164.56C186.942 156.514 179.39 147.195 179.39 147.195C179.39 147.195 187.474 155.203 187.16 145.74C186.846 136.277 176.393 121.076 158.199 112.841C140.005 104.607 122.369 107.098 115.662 113.383C108.955 119.668 120.022 120.327 120.022 120.327C120.022 120.327 108.422 120.981 104.374 128.158C100.326 135.336 115.157 140.076 115.157 140.076C115.157 140.076 115.306 144.041 116.804 147.796C118.303 151.55 130.006 158.089 138.305 161.844C146.604 165.6 159.159 170.039 162.768 168.597C166.376 167.154 170.37 164.86 170.37 164.86C170.37 164.86 182.676 172.604 184.809 164.56Z" fill="#D6986E"/>
<path d="M150.951 113.746C154.308 115.266 157.665 116.785 161.022 118.304C161.15 117.982 161.279 117.661 161.407 117.339C158.136 115.935 154.669 115.213 151.152 114.987C150.635 114.954 150.497 115.708 150.9 115.971C153.492 117.66 155.999 119.488 158.556 121.234C158.64 120.906 158.724 120.578 158.808 120.25C156.381 119.984 154.002 119.362 151.563 119.219C151.143 119.194 150.878 119.825 151.209 120.119C152.629 121.386 153.688 122.921 155.369 123.837C155.453 123.508 155.537 123.181 155.621 122.853C154.039 122.729 152.483 122.621 150.975 122.058C150.514 121.884 150.105 122.605 150.489 122.94C151.691 123.993 152.69 125.179 154.084 125.952C154.168 125.624 154.252 125.297 154.336 124.968C153.158 124.93 152.013 125.077 150.842 125.185C150.509 125.215 150.16 125.627 150.41 125.979C151.099 126.949 151.636 127.819 152.645 128.447C152.685 128.125 152.725 127.804 152.764 127.482C151.718 127.788 150.816 127.812 149.763 127.843C149.12 127.862 149.118 128.918 149.763 128.899C150.897 128.865 151.937 128.821 153.03 128.501C153.448 128.379 153.523 127.768 153.149 127.536C152.27 126.989 151.861 126.274 151.273 125.447C151.129 125.712 150.985 125.977 150.841 126.241C152.012 126.132 153.157 125.986 154.335 126.024C154.825 126.04 155.028 125.285 154.587 125.04C153.28 124.315 152.319 123.178 151.194 122.193C151.032 122.487 150.87 122.781 150.707 123.075C152.304 123.673 153.941 123.778 155.618 123.908C156.113 123.948 156.303 123.16 155.87 122.924C154.266 122.05 153.262 120.576 151.912 119.372C151.794 119.672 151.676 119.972 151.559 120.273C153.995 120.417 156.379 121.039 158.804 121.305C159.333 121.363 159.438 120.582 159.056 120.321C156.499 118.575 153.992 116.747 151.4 115.058C151.316 115.386 151.232 115.713 151.148 116.042C154.581 116.261 157.948 116.987 161.138 118.356C161.662 118.581 162.042 117.625 161.523 117.391C158.166 115.872 154.809 114.352 151.452 112.833C150.869 112.569 150.359 113.479 150.951 113.746Z" fill="#AD7041"/>
<path d="M134.246 111.58C137.358 112.431 140.557 112.312 143.731 112.684C143.687 112.339 143.642 111.993 143.598 111.647C141.209 112.316 138.821 112.812 136.593 113.979C136.133 114.219 136.37 114.959 136.845 114.963C138.449 114.974 139.921 115.52 141.491 115.758C141.451 115.436 141.411 115.115 141.371 114.793C139.953 115.745 138.499 116.592 136.952 117.287C136.615 117.439 136.635 118.04 136.952 118.199C138.142 118.795 139.213 119.598 140.395 120.206C140.435 119.884 140.475 119.563 140.514 119.241C139.497 119.425 138.602 119.979 137.585 120.162C137.178 120.236 137.076 120.951 137.466 121.127C138.185 121.453 138.905 121.779 139.624 122.104C139.664 121.782 139.704 121.461 139.744 121.139C139.116 121.334 138.471 121.431 137.843 121.627C137.226 121.819 137.489 122.838 138.109 122.645C138.737 122.449 139.382 122.352 140.01 122.157C140.385 122.04 140.551 121.383 140.13 121.192C139.411 120.867 138.691 120.54 137.972 120.215C137.932 120.537 137.892 120.858 137.853 121.18C138.87 120.995 139.765 120.442 140.782 120.258C141.203 120.182 141.275 119.487 140.901 119.293C139.719 118.684 138.648 117.883 137.458 117.286C137.458 117.59 137.458 117.895 137.458 118.198C139.005 117.502 140.459 116.655 141.877 115.703C142.203 115.484 142.218 114.807 141.758 114.738C140.093 114.485 138.544 113.916 136.847 113.905C136.931 114.233 137.015 114.56 137.099 114.889C139.248 113.763 141.565 113.307 143.865 112.664C144.447 112.502 144.264 111.69 143.732 111.627C140.648 111.265 137.539 111.388 134.513 110.561C133.887 110.39 133.622 111.409 134.246 111.58Z" fill="#AD7041"/>
<path d="M176.104 129.383C173.449 127.64 171.388 125.173 169.012 123.063C168.586 122.685 167.942 123.155 168.227 123.703C169.373 125.907 170.651 127.99 171.362 130.412C171.641 130.241 171.919 130.07 172.198 129.898C171.058 128.631 169.625 127.885 168.344 126.806C167.952 126.475 167.407 126.776 167.508 127.319C167.832 129.06 168.254 130.755 168.844 132.418C169.049 132.202 169.254 131.985 169.459 131.769C168.229 131.271 166.941 131.005 165.708 130.521C165.3 130.36 164.908 130.925 165.143 131.296C165.717 132.199 165.956 133.267 166.53 134.171C166.758 133.93 166.986 133.689 167.214 133.449C166.495 133.123 165.775 132.797 165.056 132.472C164.612 132.271 164.116 132.693 164.372 133.194C164.683 133.802 165.037 134.376 165.348 134.985C165.654 135.585 166.518 135.051 166.211 134.452C165.9 133.844 165.546 133.27 165.235 132.661C165.007 132.902 164.779 133.143 164.551 133.383C165.27 133.708 165.99 134.035 166.709 134.36C167.121 134.547 167.705 134.128 167.393 133.638C166.819 132.734 166.58 131.666 166.006 130.763C165.818 131.021 165.63 131.28 165.441 131.538C166.674 132.021 167.962 132.287 169.192 132.786C169.536 132.925 169.935 132.497 169.807 132.136C169.217 130.473 168.795 128.778 168.471 127.037C168.192 127.208 167.914 127.379 167.635 127.551C168.908 128.624 170.353 129.383 171.489 130.643C171.831 131.024 172.473 130.634 172.325 130.129C171.589 127.623 170.277 125.453 169.089 123.167C168.827 123.381 168.566 123.594 168.304 123.807C170.746 125.976 172.87 128.5 175.598 130.292C176.148 130.655 176.65 129.742 176.104 129.383Z" fill="#AD7041"/>
<path d="M168.033 152.434C168.033 152.434 170.806 152.086 174.991 152.173C176.036 152.211 177.17 152.232 178.366 152.325C179.564 152.387 180.825 152.499 182.125 152.662C183.43 152.786 184.764 153.037 186.125 153.244C187.478 153.506 188.852 153.786 190.217 154.103C191.567 154.492 192.94 154.789 194.249 155.251C195.56 155.699 196.865 156.094 198.074 156.641C199.293 157.157 200.484 157.62 201.547 158.224C202.613 158.815 203.669 159.267 204.552 159.873C205.454 160.44 206.268 160.979 206.987 161.457C207.69 161.961 208.262 162.467 208.752 162.848C209.712 163.639 210.26 164.091 210.26 164.091C210.26 164.091 209.671 163.7 208.64 163.017C208.124 162.68 207.523 162.229 206.79 161.791C206.039 161.383 205.194 160.921 204.285 160.398C203.39 159.847 202.32 159.454 201.247 158.927C200.177 158.387 198.975 158.002 197.769 157.514C196.57 157.001 195.265 156.672 193.975 156.229C192.684 155.785 191.325 155.507 189.992 155.132C188.647 154.808 187.293 154.521 185.958 154.249C184.613 154.04 183.303 153.734 182.014 153.584C180.729 153.402 179.488 153.212 178.304 153.091C177.123 152.936 176 152.857 174.964 152.765C172.891 152.619 171.158 152.496 169.943 152.477C168.729 152.432 168.033 152.434 168.033 152.434Z" fill="white"/>
<path d="M174.731 157.056C174.731 157.056 177.225 157.639 180.857 158.93C181.773 159.23 182.734 159.641 183.767 160.031C184.791 160.445 185.896 160.822 186.99 161.336C188.089 161.838 189.225 162.357 190.379 162.884C191.539 163.399 192.686 163.992 193.826 164.603C194.965 165.214 196.103 165.827 197.224 166.428C198.363 166.994 199.39 167.737 200.433 168.356C201.459 169.008 202.451 169.638 203.391 170.235C204.341 170.814 205.194 171.438 205.975 172.025C207.551 173.176 208.827 174.187 209.735 174.869C210.631 175.569 211.142 175.97 211.142 175.97C211.142 175.97 210.59 175.631 209.625 175.038C208.672 174.427 207.289 173.593 205.674 172.528C204.869 171.989 203.992 171.418 203.016 170.896C202.057 170.345 201.046 169.766 200 169.166C198.951 168.574 197.904 167.893 196.773 167.33C195.655 166.743 194.519 166.147 193.383 165.55C192.257 164.932 191.123 164.333 189.976 163.81C188.842 163.258 187.725 162.715 186.645 162.189C185.566 161.659 184.496 161.212 183.498 160.745C182.492 160.298 181.555 159.835 180.662 159.487C179.773 159.127 178.964 158.775 178.247 158.464C177.53 158.149 176.893 157.919 176.373 157.707C175.329 157.293 174.731 157.056 174.731 157.056Z" fill="white"/>
<path d="M168.63 159.126C168.63 159.126 169.064 159.553 169.847 160.267C170.239 160.623 170.69 161.079 171.252 161.555C171.808 162.037 172.435 162.58 173.101 163.191C173.766 163.805 174.538 164.406 175.326 165.077C176.128 165.729 176.94 166.459 177.836 167.14C178.72 167.836 179.634 168.555 180.562 169.286C181.47 170.047 182.456 170.725 183.426 171.426C184.392 172.136 185.357 172.844 186.308 173.542C187.26 174.237 188.245 174.844 189.173 175.473C190.103 176.102 191.001 176.71 191.853 177.285C192.69 177.891 193.537 178.362 194.306 178.819C195.851 179.723 197.112 180.536 198.01 181.079C198.899 181.641 199.406 181.963 199.406 181.963C199.406 181.963 198.867 181.709 197.923 181.262C196.988 180.796 195.632 180.166 194.036 179.341C193.238 178.929 192.359 178.508 191.487 177.951C190.604 177.415 189.673 176.849 188.71 176.264C187.762 175.653 186.737 175.093 185.776 174.393C184.811 173.7 183.832 172.994 182.852 172.289C181.88 171.572 180.893 170.876 179.985 170.101C179.067 169.34 178.164 168.591 177.29 167.866C176.399 167.164 175.628 166.366 174.858 165.664C174.103 164.942 173.363 164.292 172.728 163.634C172.083 162.987 171.508 162.378 170.998 161.84C170.481 161.31 170.067 160.803 169.708 160.41C168.998 159.615 168.63 159.126 168.63 159.126Z" fill="white"/>
<path d="M127.244 133.847C127.244 133.847 126.768 133.311 125.904 132.408C125.057 131.489 123.784 130.241 122.261 128.75C121.487 128.017 120.663 127.208 119.746 126.407C118.85 125.58 117.868 124.757 116.861 123.895C115.873 123.009 114.764 122.211 113.697 121.321C112.594 120.483 111.467 119.639 110.321 118.829C109.149 118.062 108.025 117.208 106.833 116.522C105.643 115.833 104.521 115.057 103.345 114.488C102.181 113.897 101.091 113.237 99.9851 112.785C98.8861 112.322 97.8812 111.77 96.8882 111.46C95.9042 111.121 95.0071 110.789 94.2101 110.492C93.4051 110.229 92.6821 110.077 92.0961 109.911C90.9181 109.588 90.2441 109.404 90.2441 109.404C90.2441 109.404 90.9321 109.514 92.1351 109.71C92.7341 109.825 93.4751 109.917 94.3051 110.111C95.1271 110.336 96.0581 110.592 97.0671 110.895C98.0901 111.158 99.1261 111.66 100.265 112.073C101.411 112.474 102.546 113.072 103.738 113.654C104.944 114.208 106.111 114.94 107.32 115.639C108.536 116.327 109.682 117.178 110.876 117.949C112.031 118.781 113.166 119.645 114.275 120.504C115.352 121.408 116.439 122.261 117.42 123.179C118.424 124.065 119.366 124.958 120.231 125.835C121.116 126.69 121.908 127.546 122.651 128.323C125.582 131.479 127.244 133.847 127.244 133.847Z" fill="white"/>
<path d="M119.463 131.872C119.463 131.872 118.891 131.576 117.89 131.056C117.387 130.803 116.791 130.47 116.082 130.135C115.375 129.799 114.578 129.419 113.72 128.983C112.867 128.535 111.905 128.134 110.907 127.667C109.9 127.22 108.858 126.706 107.753 126.241C106.65 125.771 105.509 125.286 104.351 124.793C103.204 124.27 102.013 123.81 100.815 123.369C99.6251 122.905 98.4351 122.442 97.2631 121.986C96.1001 121.502 94.9121 121.165 93.7841 120.765C92.6531 120.374 91.5601 119.995 90.5241 119.635C89.4951 119.244 88.4991 118.961 87.5761 118.712C85.7341 118.202 84.2101 117.712 83.1361 117.399C82.0651 117.064 81.4531 116.873 81.4531 116.873C81.4531 116.873 82.0801 116.991 83.1771 117.199C84.2701 117.429 85.8431 117.715 87.7161 118.136C88.6561 118.334 89.6721 118.561 90.7231 118.893C91.7801 119.206 92.8941 119.536 94.0471 119.877C95.1901 120.254 96.4051 120.535 97.5771 121.021C98.7611 121.468 99.9631 121.925 101.166 122.38C102.369 122.836 103.564 123.311 104.715 123.848C105.87 124.373 107.006 124.89 108.106 125.39C109.21 125.877 110.228 126.468 111.216 126.971C112.194 127.497 113.137 127.953 113.971 128.451C117.35 130.356 119.463 131.872 119.463 131.872Z" fill="white"/>
<path d="M122.222 137.98C122.222 137.98 121.632 138.032 120.596 138.032C120.079 138.025 119.446 138.055 118.726 138.021C118.005 137.999 117.19 137.975 116.303 137.923C115.414 137.886 114.459 137.763 113.443 137.679C112.43 137.569 111.352 137.524 110.257 137.322C109.158 137.148 108.022 136.967 106.868 136.785C105.71 136.619 104.554 136.337 103.393 136.083C102.235 135.813 101.077 135.544 99.9371 135.279C98.7951 135.022 97.7071 134.618 96.6351 134.309C95.5711 133.97 94.5431 133.643 93.5681 133.333C92.5871 133.045 91.6941 132.659 90.8621 132.328C89.1981 131.668 87.8341 131.058 86.8711 130.66C85.9161 130.241 85.3711 130.001 85.3711 130.001C85.3711 130.001 85.9411 130.17 86.9391 130.467C87.9291 130.785 89.3541 131.195 91.0371 131.762C91.8801 132.04 92.7851 132.367 93.7771 132.595C94.7591 132.855 95.7941 133.128 96.8641 133.411C97.9341 133.692 99.0281 134.032 100.16 134.288C101.293 134.539 102.444 134.795 103.595 135.05C104.744 135.315 105.888 135.606 107.035 135.783C108.176 135.995 109.298 136.203 110.384 136.406C111.468 136.627 112.528 136.75 113.528 136.919C114.53 137.063 115.475 137.245 116.354 137.335C117.233 137.428 118.037 137.536 118.751 137.632C119.465 137.738 120.088 137.771 120.603 137.829C121.63 137.939 122.222 137.98 122.222 137.98Z" fill="white"/>
<path d="M132.057 134.148C131.099 136.56 131.514 139.043 132.985 139.693C134.455 140.345 136.424 138.917 137.382 136.506C138.34 134.095 137.925 131.612 136.454 130.961C134.984 130.311 133.015 131.737 132.057 134.148Z" fill="#3A130E"/>
<path d="M132.985 139.693C131.515 139.042 131.099 136.56 132.057 134.148C132.316 133.496 132.653 132.924 133.03 132.438L136.819 137.611C135.775 139.323 134.211 140.237 132.985 139.693Z" fill="#231012"/>
<path d="M135.623 134.723C135.322 135.479 135.377 136.224 135.744 136.387C136.111 136.549 136.653 136.068 136.954 135.312C137.254 134.556 137.2 133.811 136.833 133.648C136.464 133.485 135.923 133.967 135.623 134.723Z" fill="#EFF6FE"/>
<path d="M156.302 145.121C155.344 147.533 155.759 150.016 157.23 150.666C158.7 151.318 160.669 149.89 161.627 147.479C162.585 145.067 162.17 142.584 160.699 141.934C159.229 141.282 157.26 142.71 156.302 145.121Z" fill="#3A130E"/>
<path d="M157.231 150.666C155.761 150.015 155.345 147.533 156.303 145.121C156.562 144.469 156.899 143.897 157.276 143.411L161.065 148.584C160.021 150.296 158.457 151.209 157.231 150.666Z" fill="#231012"/>
<path d="M159.868 145.695C159.567 146.452 159.622 147.196 159.989 147.36C160.356 147.522 160.898 147.041 161.198 146.285C161.498 145.529 161.444 144.783 161.077 144.621C160.71 144.457 160.168 144.939 159.868 145.695Z" fill="#EFF6FE"/>
<path d="M146.468 141.751C149.657 143.164 151.779 145.37 150.861 146.548C149.943 147.725 146.442 148.233 144.007 147.946C142.106 146.312 139.996 143.319 140.148 141.803C140.301 140.287 143.28 140.34 146.468 141.751Z" fill="#231012"/>
<path d="M136.521 145.461C136.521 145.461 136.926 148.353 139.233 149.394C141.999 150.642 144.008 147.946 144.008 147.946C144.008 147.946 143.594 151.347 146.375 152.556C148.695 153.565 150.932 151.844 150.932 151.844" stroke="#231012" stroke-miterlimit="10" stroke-linecap="round" stroke-linejoin="round"/>
<path d="M166.849 181.495C161.655 189.897 154.935 193.601 150.007 189.466C145.079 185.329 147.499 176.154 153.413 168.3C159.327 160.447 164.988 158.852 169.916 162.988C172.38 165.056 175.593 172.098 174.573 175.716C173.554 179.335 172.797 171.874 166.849 181.495Z" fill="#D6986E"/>
<path d="M154.41 173.457C154.41 173.457 148.087 181.608 147.986 186.652" stroke="#AD7041" stroke-width="0.75" stroke-miterlimit="10" stroke-linecap="round" stroke-linejoin="round"/>
<path d="M159.703 177.9C159.703 177.9 155.869 184.192 156.185 190.962" stroke="#AD7041" stroke-width="0.75" stroke-miterlimit="10" stroke-linecap="round" stroke-linejoin="round"/>
<path d="M153.414 168.3C159.328 160.447 164.989 158.852 169.917 162.988C170.692 163.638 171.541 164.78 172.309 166.153" stroke="#AD7041" stroke-width="0.75" stroke-miterlimit="10" stroke-linecap="round" stroke-linejoin="round"/>
<path d="M52.4639 153.459C52.4639 153.459 57.1969 142.415 60.8609 138.015C64.5249 133.614 91.6849 126.605 104.94 130.828C118.195 135.051 122.802 143.498 122.802 143.498L52.4639 153.459Z" fill="#969269"/>
<path d="M145.568 149.026C126.235 139.063 103.527 131.69 71.5268 139.881C56.2578 143.79 37.8168 160.039 36.6718 173.764C35.8088 184.109 44.1988 223.035 55.7748 249.12C74.4818 263.728 97.6208 272.37 122.675 272.37C131.76 272.37 140.591 271.226 149.053 269.082L150.4 231.727C150.4 231.727 153.86 240.28 156.194 242.392C158.528 244.503 173.527 238.169 181.861 229.722C190.194 221.276 194.528 212.829 191.861 205.79C189.194 198.75 164.902 158.987 145.568 149.026Z" fill="#7E7B44"/>
<mask id="mask1_37_1014" style="mask-type:luminance" maskUnits="userSpaceOnUse" x="36" y="136" width="157" height="137">
<path d="M145.568 149.026C126.235 139.063 103.527 131.69 71.5268 139.881C56.2578 143.79 37.8168 160.039 36.6718 173.764C35.8088 184.109 44.1988 223.035 55.7748 249.12C74.4818 263.728 97.6208 272.37 122.675 272.37C131.76 272.37 140.591 271.226 149.053 269.082L150.4 231.727C150.4 231.727 153.86 240.28 156.194 242.392C158.528 244.503 173.527 238.169 181.861 229.722C190.194 221.276 194.528 212.829 191.861 205.79C189.194 198.75 164.902 158.987 145.568 149.026Z" fill="white"/>
</mask>
<g mask="url(#mask1_37_1014)">
<path d="M33.3196 171.176C39.3766 166.651 45.4546 162.194 53.2426 164.139C59.5786 165.722 58.6186 171.509 57.0416 176.6C55.9016 180.278 53.9216 184.941 55.5726 188.758C56.9276 191.892 61.4176 191.249 63.9536 190.932C68.9106 190.313 74.0776 189.194 78.8516 191.388C84.4246 193.95 84.9426 202.15 83.2746 207.508C81.5106 213.174 75.2386 214.272 70.3846 214.8C66.7056 215.2 61.6546 216.606 61.4066 221.43C61.2576 224.328 62.2746 227.166 61.5506 230.036C60.9166 232.547 58.6756 235.096 56.6926 236.528C53.1676 239.073 48.8646 237.822 45.5576 235.561C39.1986 231.21 32.8456 220.398 35.4346 212.196C35.5366 211.872 35.0536 211.735 34.9526 212.056C32.4356 220.028 38.0876 229.733 43.6416 234.704C46.2646 237.051 49.5936 238.746 53.0946 238.439C56.9236 238.103 59.6396 234.856 61.4206 231.556C62.6736 229.233 62.3336 226.819 62.0186 224.276C61.4706 219.856 63.4076 216.923 67.4666 215.814C71.9546 214.588 76.6016 215.127 80.5966 212.178C83.9356 209.712 84.5916 205.287 84.4846 201.284C84.3606 196.644 82.8246 192.645 78.6206 190.712C73.1706 188.206 67.0666 190.323 61.4456 190.643C58.0896 190.833 55.5776 189.608 55.4846 185.723C55.4026 182.304 56.8816 178.878 57.8486 175.68C59.2756 170.959 59.6106 166.2 54.6196 164.044C46.6926 160.62 39.2496 166.104 33.0676 170.722C32.8066 170.916 33.0556 171.373 33.3196 171.176Z" fill="#EAE5DF"/>
<path d="M119.527 136.546C113.643 136.335 108.042 139.256 104.188 143.908C100.982 147.778 98.4555 153.151 100.879 158.175C101.861 160.21 103.828 161.632 105.254 163.291C107.647 166.075 107.394 169.211 105.842 172.34C103.689 176.679 100.052 180.114 99.0665 185.06C98.1345 189.732 100.847 193.763 104.787 195.531C106.697 196.389 108.845 196.692 110.853 196.098C113.156 195.419 115.093 192.974 116.987 191.588C119.919 189.442 122.724 188.538 126.182 189.739C129.008 190.722 131.549 192.261 134.461 193.022C138.983 194.205 143.174 191.169 145.764 187.571C150.298 181.272 151.092 172.224 153.319 164.866C155.297 158.333 159.459 145.592 168.127 148.327C168.437 148.425 168.568 147.915 168.26 147.818C161.26 145.61 157.058 153.305 154.801 159.058C151.744 166.851 150.816 175.413 147.618 183.111C144.843 189.79 139.415 194.257 132.375 191.845C127.605 190.21 123.999 187.208 118.953 189.68C116.383 190.94 114.425 193.216 112.109 194.872C108.987 197.104 104.52 195.445 101.918 193.064C96.6735 188.262 100.71 181.232 103.777 176.651C105.456 174.142 107.243 171.56 107.595 168.429C107.992 164.906 105.211 162.454 103.078 160.248C98.3415 155.346 100.857 148.903 104.541 144.283C108.206 139.686 113.846 136.872 119.526 137.075C119.849 137.086 119.848 136.558 119.527 136.546Z" fill="#EAE5DF"/>
<path d="M155.777 248.021C155.976 239.277 153.801 229.905 149.626 222.35C145.895 215.599 138.201 209.916 130.929 214.628C127.632 216.764 125.777 220.636 122.556 222.881C120.354 224.415 117.75 224.414 115.261 223.836C112.368 223.165 109.413 222.598 106.471 222.235C97.7333 221.156 83.6943 227.79 88.7923 239.078C91.1543 244.308 98.3733 243.495 100.51 249.278C101.593 252.21 99.8883 255.646 98.6623 258.196C97.4443 260.729 96.0883 263.173 95.2873 265.9C93.1123 273.302 96.1783 280.15 102.606 283.645C108.88 287.055 117.012 286.662 122.878 282.525C130.491 277.154 129.975 263.464 139.533 260.711C144.625 259.246 149.546 263.005 154.393 264.035C158.569 264.923 162.568 263.908 165.078 260.12C165.263 259.84 164.83 259.577 164.646 259.854C160.509 266.097 153.317 263.516 147.801 261.207C143.819 259.54 139.446 259.261 135.861 262.002C132.227 264.781 130.289 269.762 128.584 273.957C126.793 278.364 123.976 281.72 119.805 283.723C112.538 287.214 102.386 285.353 97.4133 278.522C94.7793 274.904 94.5653 270.281 95.7693 266.04C97.2183 260.935 101.316 256.474 101.303 250.95C101.291 245.759 95.7363 243.82 92.1683 241.896C89.0353 240.205 87.7523 236.188 88.2343 232.666C88.7393 228.981 92.6383 226.373 95.4223 224.724C101.357 221.212 108.067 222.921 114.34 224.188C118.329 224.994 121.484 224.81 124.613 221.855C127.797 218.848 129.87 214.89 134.287 213.687C139.097 212.379 143.749 215.334 146.789 219.021C152.724 226.22 155.15 237.401 155.29 246.733C155.296 247.162 155.287 247.592 155.278 248.02C155.269 248.361 155.769 248.361 155.777 248.021Z" fill="#EAE5DF"/>
<path d="M183.194 183.001C176.32 182.328 167.311 187.822 168.149 196.01C168.473 199.178 171.375 200.797 173.581 202.445C175.715 204.04 177.039 206.18 176.44 209.031C175.966 211.285 174.102 213.185 172.971 215.091C168.565 222.513 176.491 231.629 182.851 233.884C190.707 236.67 197.851 230.075 200.434 222.752C200.547 222.432 200.063 222.296 199.952 222.612C197.068 230.789 189.246 236.515 181.099 232.59C177.129 230.677 173.96 226.626 172.695 222.272C171.308 217.503 174.106 214.698 176.19 210.987C179.295 205.459 174.215 202.619 170.769 199.66C166.449 195.951 169.225 190.012 172.704 186.971C175.54 184.493 179.516 183.169 183.194 183.529C183.515 183.561 183.512 183.033 183.194 183.001Z" fill="#EAE5DF"/>
</g>
<path d="M145.568 149.026C145.568 149.026 125.008 146.546 128.969 170.597C133.25 196.587 150.4 231.726 150.4 231.726" stroke="#514D27" stroke-width="0.75" stroke-miterlimit="10" stroke-linecap="round" stroke-linejoin="round"/>
<path d="M191.861 205.79C191.861 205.79 182.878 232.945 153.869 239.076" stroke="#514D27" stroke-width="0.75" stroke-miterlimit="10" stroke-linecap="round" stroke-linejoin="round"/>
</svg>
